<svg width="195" height="333" viewBox="0 0 195 333" fill="none" xmlns="http://www.w3.org/2000/svg">
<path d="M31 265.29C31 265.29 37.0412 263.51 41 268.772C41 268.772 38.4554 271.738 32.4691 268.451L31 265.29Z" fill="#00BC52"/>
<path d="M29.6448 265C29.6448 265 26.7913 269.935 28.6012 275C28.6012 275 31.0679 273.552 30.9986 267.227L29.6448 265Z" fill="#00BC52"/>
<path d="M26 257.132C26 257.132 28.4319 251.643 40 258.279C40 258.279 38.7556 261.945 33.84 261.999C28.9244 262.053 27.4519 259.831 26 257.132Z" fill="#00BC52"/>
<path d="M26.5077 259C26.5077 259 21.7422 258.771 22.011 269.984C22.011 269.984 25.0529 270.424 26.9514 266.731C28.8499 263.038 27.843 261.129 26.5077 259Z" fill="#00BC52"/>
<path d="M23 249.61C23 249.61 25.2831 240.05 36 245.89C36 245.89 34.1279 254.645 24.2192 252.725L23 249.61Z" fill="#00BC52"/>
<path d="M23 162.99C23 162.99 20.2697 151.048 14 150C14 150 15.5388 161.646 22.5867 166L23 162.99Z" fill="#00BC52"/>
<path d="M51 227.236C51 227.236 55.236 225.798 58 230.025C58 230.025 56.2156 232.382 52.0325 229.766L51 227.236Z" fill="#00BC52"/>
<path d="M50 223.217C50 223.217 51.2153 220.081 57 223.877C57 223.877 56.3773 225.969 53.9166 225.999C51.4558 226.03 50.7344 224.762 50 223.217Z" fill="#00BC52"/>
<path d="M49.7604 224C49.7604 224 45.7856 223.856 46.0091 230.99C46.0091 230.99 48.5433 231.268 50.125 228.92C51.7066 226.571 50.8717 225.355 49.7604 224Z" fill="#00BC52"/>
<path d="M47 217.5C47 217.5 48.6036 213.246 56 215.837C56 215.837 54.7098 219.733 47.8566 218.877L47 217.5Z" fill="#00BC52"/>
<path d="M45 210.147C45 210.147 47.6029 205.906 53 209.345C53 209.345 51.4725 213.278 45.5418 211.57L45 210.147Z" fill="#00BC52"/>
<path d="M46.4299 217.389C46.4299 217.389 42.2205 215.128 40 221.505C40 221.505 43.7593 223.671 47 218.94L46.4299 217.389Z" fill="#00BC52"/>
<path opacity="0.1" d="M71.1545 259.025C70.1514 259.232 69.1691 259.559 68.223 260C64.4114 238.249 61.997 216.196 61 194.025C61.7192 193.355 62.1179 193 62.1179 193C93.8124 206.572 71.1545 259.025 71.1545 259.025Z" fill="black"/>
<path opacity="0.1" d="M156 193.798C154.474 215.76 151.139 237.566 146.027 259C145.45 258.83 144.863 258.695 144.269 258.597C144.269 258.597 117.503 206.485 154.939 193.001C154.925 192.983 155.303 193.259 156 193.798Z" fill="black"/>
<path d="M143.219 267.182C140.695 277.157 137.735 287.39 134.342 297.883C134.342 297.883 118.238 314.683 79.3392 297.883C79.3392 297.883 75.4529 286.912 71.1789 268.261C61.7697 227.252 50.4851 149.104 74.5287 68.8339C81.6885 44.7031 91.8651 21.5752 104.816 0C104.816 0 125.357 23.6173 140.433 68.8203C155.509 114.023 165.103 180.821 143.219 267.182Z" fill="#E3E8F4"/>
<path d="M16.8508 175.931C16.8508 175.931 10.023 167.79 0.988525 177.187C0.988525 177.187 7.42391 184.294 16.9754 178.151L16.8508 175.931Z" fill="#00BC52"/>
<path d="M16.9754 141.827C16.9754 141.827 11.3256 132.273 0.988525 137.402C0.988525 137.402 8.29881 146.04 16.6164 143.37L16.9754 141.827Z" fill="#00BC52"/>
<path d="M18.574 237.703C18.574 237.703 22.7387 229.217 31.3635 236.103C31.3635 236.103 28.9268 243.951 19.44 240.545L18.574 237.703Z" fill="#00BC52"/>
<path d="M16.9753 227.342C16.9753 227.342 22.2641 220.113 31.3635 226.357C31.3635 226.357 26.3134 232.729 17.0884 229.087L16.9753 227.342Z" fill="#00BC52"/>
<path d="M15.3767 216.302C15.3767 216.302 20.8424 208.985 29.7649 214.996C29.7649 214.996 23.4768 221.555 15.4881 217.926L15.3767 216.302Z" fill="#00BC52"/>
<path d="M15.3767 206.694C15.3767 206.694 21.1717 195.166 29.7649 202.002C29.7649 202.002 23.4103 212.016 15.5001 208.787L15.3767 206.694Z" fill="#00BC52"/>
<path d="M15.3767 195.075C15.3767 195.075 22.1406 183.535 31.3636 191.376C31.3636 191.376 23.102 201.551 15.483 197.12L15.3767 195.075Z" fill="#00BC52"/>
<path d="M17.1658 184.52C17.1658 184.52 24.3599 174.966 31.3635 178.077C31.3635 178.077 23.8817 188.209 16.9753 186.936L17.1658 184.52Z" fill="#00BC52"/>
<path d="M19.15 175.309C19.15 175.309 28.4527 163.514 34.5609 166.862C34.5609 166.862 27.7481 175.976 18.574 177.454L19.15 175.309Z" fill="#00BC52"/>
<path d="M22.7855 163.285C22.7855 163.285 31.0784 153.426 37.7581 155.313C37.7581 155.313 30.779 165.436 21.7712 166.264L22.7855 163.285Z" fill="#00BC52"/>
<path d="M26.8371 152.91C26.8371 152.91 35.3193 142.623 39.3569 144.011C39.3569 144.011 33.453 155.177 26.5674 155.072L26.8371 152.91Z" fill="#00BC52"/>
<path d="M29.7649 143.001C29.7649 143.001 36.7386 133.87 40.9557 134.305C40.9557 134.305 36.9206 142.317 29.8342 143.882L29.7649 143.001Z" fill="#00BC52"/>
<path d="M31.4716 131.685C31.4716 131.685 37.4548 123.332 40.9557 123.099C40.9557 123.099 36.5026 133.994 31.3635 134.29L31.4716 131.685Z" fill="#00BC52"/>
<path d="M35.2001 121.718L40.8636 105.513C40.8636 105.513 42.2142 119.745 34.5608 124.698L35.2001 121.718Z" fill="#00BC52"/>
<path d="M35.2428 102.686C35.2428 102.686 35.4684 88.9868 34.5608 87.9279C34.5608 87.9279 40.9554 98.9356 35.6582 108.711L35.2428 102.686Z" fill="#00BC52"/>
<path d="M22.3138 249.891C22.3138 249.891 14.6116 247.006 10.5806 255.157C10.5806 255.157 17.449 257.929 23.3701 251.873L22.3138 249.891Z" fill="#00BC52"/>
<path d="M17.6378 237.075C17.6378 237.075 9.09123 233.655 5.78442 245.283C5.78442 245.283 12.4891 249.484 18.5739 239.885L17.6378 237.075Z" fill="#00BC52"/>
<path d="M18.5741 184.611C18.5741 184.611 15.894 171.653 7.3833 171.06C7.3833 171.06 10.0824 184.737 17.6047 187.047L18.5741 184.611Z" fill="#00BC52"/>
<path d="M20.1726 175.234C20.1726 175.234 18.5835 159.94 12.1792 159.869C12.1792 159.869 13.1102 171.499 19.5881 177.454L20.1726 175.234Z" fill="#00BC52"/>
<path d="M26.5673 153.374C26.5673 153.374 25.7256 140.69 21.9799 139.086C21.9799 139.086 20.4606 150.735 25.6204 155.073L26.5673 153.374Z" fill="#00BC52"/>
<path d="M29.7649 142.959C29.7649 142.959 28.1359 129.512 23.3988 127.895C23.3988 127.895 22.6231 138.657 29.1391 143.882L29.7649 142.959Z" fill="#00BC52"/>
<path d="M31.3634 131.932C31.3634 131.932 30.8058 120.732 28.5245 118.303C28.5245 118.303 26.9674 130.779 30.3434 134.29L31.3634 131.932Z" fill="#00BC52"/>
<path d="M34.2184 121.502L30.3037 103.915C30.3037 103.915 27.5322 118.732 34.561 124.698L34.2184 121.502Z" fill="#00BC52"/>
<path d="M32.9872 101.967C32.9872 101.967 24.9049 90.8227 24.9691 89.5266C24.9691 89.5266 26.592 101.641 36.1596 107.112L32.9872 101.967Z" fill="#00BC52"/>
<path d="M34.0453 99.1187C34.0453 99.1187 26.4158 82.71 23.3701 81.5331C23.3701 81.5331 33.0228 85.7852 34.5609 98.5776L34.0453 99.1187Z" fill="#00BC52"/>
<path d="M31.8631 134.29L31.3635 134.168C36.2839 113.749 36.9783 100.875 33.3117 97.9187L33.6514 97.52C37.5178 100.651 36.9084 113.369 31.8631 134.29Z" fill="#444053"/>
<path d="M19.2229 177.454L18.574 177.259C19.0303 175.5 19.5243 173.71 20.0518 171.947C24.6568 156.587 28.4832 142.339 30.8318 131.434L31.3635 131.092C29.0107 142.025 25.289 156.797 20.6923 172.171C20.169 173.929 19.675 175.705 19.2229 177.454Z" fill="#444053"/>
<path d="M40.2874 279.77C40.1881 279.675 30.2533 269.799 22.6216 252.304C18.15 242.064 15.3136 231.173 14.2177 220.037C12.863 206.117 14.7145 190.341 18.7335 175.856L19.3116 176.458C10.28 208.971 16.5163 235.886 23.4796 251.871C31.0346 269.197 40.8564 278.977 40.9558 279.073L40.2874 279.77Z" fill="#444053"/>
<path d="M40.9556 204.084C40.9556 204.084 44.4839 198.653 50.5477 203.343C50.5477 203.343 47.1856 208.112 41.0341 205.393L40.9556 204.084Z" fill="#00BC52"/>
<path d="M40.9556 197.796C40.9556 197.796 44.6016 192.308 50.5477 196.82C50.5477 196.82 46.3585 201.738 41.0311 199.014L40.9556 197.796Z" fill="#00BC52"/>
<path d="M40.9556 191.621C40.9556 191.621 44.8449 183.932 50.5477 188.491C50.5477 188.491 46.3083 195.174 41.0334 193.01L40.9556 191.621Z" fill="#00BC52"/>
<path d="M40.9556 183.881C40.9556 183.881 45.0274 178.097 50.5477 182.011C50.5477 182.011 45.5886 187.108 41.0131 184.888L40.9556 183.881Z" fill="#00BC52"/>
<path d="M44.2309 177.788C44.2309 177.788 47.4299 173.012 50.5478 174.569C50.5478 174.569 47.2181 179.635 44.1531 178.998L44.2309 177.788Z" fill="#00BC52"/>
<path d="M44.498 172.724C44.498 172.724 50.0785 164.304 53.7452 166.689C53.7452 166.689 49.6579 173.201 44.1531 174.257L44.498 172.724Z" fill="#00BC52"/>
<path d="M46.3464 165.736C46.3464 165.736 51.3247 158.691 55.3438 160.041C55.3438 160.041 51.1569 167.272 45.7517 167.862L46.3464 165.736Z" fill="#00BC52"/>
<path d="M49.1184 158.632C49.1184 158.632 54.4184 152.755 56.9427 153.548C56.9427 153.548 53.2569 159.925 48.9492 159.868L49.1184 158.632Z" fill="#00BC52"/>
<path d="M50.5479 152.891C50.5479 152.891 55.5303 146.806 58.5413 147.089C58.5413 147.089 55.6635 152.428 50.5991 153.474L50.5479 152.891Z" fill="#00BC52"/>
<path d="M50.6395 145.231C50.6395 145.231 55.6247 139.255 58.5413 139.086C58.5413 139.086 54.8282 146.883 50.5479 147.079L50.6395 145.231Z" fill="#00BC52"/>
<path d="M54.0793 141.622L56.8976 129.494C56.8976 129.494 57.566 140.152 53.7451 143.882L54.0793 141.622Z" fill="#00BC52"/>
<path d="M54.4323 130.117C54.4323 130.117 54.6529 120.635 53.7451 119.902C53.7451 119.902 60.1421 127.519 54.8396 134.29L54.4323 130.117Z" fill="#00BC52"/>
<path d="M43.5706 209.74C43.5706 209.74 38.2252 207.462 36.1597 215.213C36.1597 215.213 40.3491 218.012 44.1531 211.619L43.5706 209.74Z" fill="#00BC52"/>
<path d="M40.8778 204.342C40.8778 204.342 36.7872 201.088 31.3635 204.841C31.3635 204.841 35.2251 207.693 40.9557 205.226L40.8778 204.342Z" fill="#00BC52"/>
<path d="M40.8809 197.17C40.8809 197.17 36.6453 192.096 31.3635 197.611C31.3635 197.611 36.0662 202.016 40.9557 198.43L40.8809 197.17Z" fill="#00BC52"/>
<path d="M40.9557 191.887C40.9557 191.887 37.5324 184.309 31.3635 188.117C31.3635 188.117 35.2402 194.775 40.7763 193.2L40.9557 191.887Z" fill="#00BC52"/>
<path d="M40.9555 184.218C40.9555 184.218 38.6988 178.479 34.5608 181.561C34.5608 181.561 37.4798 186.752 40.804 185.136L40.9555 184.218Z" fill="#00BC52"/>
<path d="M44.1531 177.838C44.1531 177.838 42.6217 171.353 37.7583 171.06C37.7583 171.06 39.2986 177.899 43.5962 179.053L44.1531 177.838Z" fill="#00BC52"/>
<path d="M45.7517 172.843C45.7517 172.843 44.4956 163.116 39.3569 163.066C39.3569 163.066 40.0992 170.467 45.2607 174.257L45.7517 172.843Z" fill="#00BC52"/>
<path d="M47.3503 164.464C47.3503 164.464 45.4117 157.302 40.9556 156.671C40.9556 156.671 42.0515 163.651 47.0608 166.264L47.3503 164.464Z" fill="#00BC52"/>
<path d="M48.9491 158.851C48.9491 158.851 48.3777 151.227 45.8921 150.277C45.8921 150.277 44.8747 157.268 48.3173 159.869L48.9491 158.851Z" fill="#00BC52"/>
<path d="M50.5477 152.919C50.5477 152.919 49.7349 144.853 47.3648 143.882C47.3648 143.882 46.9755 150.357 50.2354 153.474L50.5477 152.919Z" fill="#00BC52"/>
<path d="M53.7452 145.666C53.7452 145.666 53.1782 138.948 50.9099 137.487C50.9099 137.487 49.3391 144.976 52.7415 147.079L53.7452 145.666Z" fill="#00BC52"/>
<path d="M53.5194 138.962L50.9081 129.494C50.9081 129.494 49.0575 137.475 53.7452 140.685L53.5194 138.962Z" fill="#00BC52"/>
<path d="M53.5318 131.018C53.5318 131.018 48.9147 123.93 48.9494 123.099C48.9494 123.099 49.8728 130.809 55.344 134.29L53.5318 131.018Z" fill="#00BC52"/>
<path d="M53.4518 126.296C53.4518 126.296 49.0895 117.336 47.3503 116.704C47.3503 116.704 52.8693 119.026 53.7451 126.015L53.4518 126.296Z" fill="#00BC52"/>
<path d="M51.0662 147.079L50.5479 147.011C55.4843 135.47 56.1425 128.192 52.4895 126.524L52.8269 126.296C56.702 128.069 56.0932 135.261 51.0662 147.079Z" fill="#444053"/>
<path d="M44.4785 174.257L44.1531 174.131C44.3816 173.04 44.6309 171.932 44.894 170.855C47.1895 161.315 49.1075 152.467 50.2812 145.696L50.5478 145.481C49.3707 152.265 47.5115 161.446 45.2125 170.996C44.9494 172.077 44.7036 173.167 44.4785 174.257Z" fill="#444053"/>
<path d="M58.1015 236.606C58.0388 236.546 51.614 230.471 46.6772 219.704C43.7876 213.402 41.9534 206.701 41.2427 199.85C40.3587 191.282 41.5664 181.574 44.1701 172.658L44.542 173.03C38.7018 193.037 42.7354 209.6 47.2375 219.439C52.1261 230.113 58.4735 236.114 58.5411 236.174L58.1015 236.606Z" fill="#444053"/>
<path d="M70.4347 258.539C69.2982 258.743 68.1852 259.066 67.1132 259.5C43.2251 269.178 43.6237 332.527 43.6237 332.527H36.591C36.591 332.527 34.3767 305.341 24.7266 266.554C16.0332 231.658 51.6883 200.383 58.9291 194.452C59.744 193.792 60.1957 193.441 60.1957 193.441C96.1076 206.83 70.4347 258.539 70.4347 258.539Z" fill="#0091CA"/>
<path opacity="0.2" d="M63.3373 194.533C62.4976 194.147 61.6309 193.778 60.7104 193.441C60.7104 193.441 60.2613 193.792 59.4261 194.452C52.084 200.383 15.9307 231.66 24.7456 266.559C34.5305 305.348 36.7533 332.527 36.7533 332.527H40.7634C40.7634 332.527 38.5405 305.339 28.7332 266.55C19.9542 231.813 55.7573 200.653 63.3373 194.533Z" fill="white"/>
<path d="M192.997 266.563C182.773 305.35 180.469 332.527 180.469 332.527H173.021C173.021 332.527 173.49 266.32 146.464 258.929C145.879 258.761 145.283 258.627 144.681 258.53C144.681 258.53 117.529 206.821 155.504 193.441C155.504 193.441 155.888 193.715 156.581 194.25C163.617 199.655 202.289 231.262 192.997 266.563Z" fill="#0091CA"/>
<path d="M108.1 164.665C125.759 164.665 140.074 149.992 140.074 131.892C140.074 113.792 125.759 99.1187 108.1 99.1187C90.4419 99.1187 76.1267 113.792 76.1267 131.892C76.1267 149.992 90.4419 164.665 108.1 164.665Z" fill="#AFC0E0"/>
<path d="M130.482 131.89C130.482 136.28 129.278 140.58 127.011 144.289C124.744 147.999 121.506 150.965 117.675 152.844C113.844 154.722 109.577 155.435 105.37 154.9C101.162 154.365 97.1885 152.603 93.91 149.82C92.3098 148.456 90.8983 146.869 89.7152 145.106C89.184 144.319 88.7013 143.497 88.27 142.646C86.5913 139.328 85.7158 135.636 85.7188 131.89C85.7188 131.703 85.7188 131.52 85.7188 131.338C85.8335 126.38 87.4784 121.591 90.4122 117.672C93.3461 113.752 97.4147 110.91 102.022 109.56C103.781 109.057 105.591 108.773 107.415 108.711H108.085C111.025 108.709 113.937 109.307 116.654 110.471C119.371 111.635 121.84 113.342 123.92 115.495C126 117.647 127.65 120.203 128.776 123.016C129.902 125.829 130.481 128.844 130.482 131.89Z" fill="#0091CA"/>
<path d="M140.074 70.354C103.643 88.3129 74.5281 70.354 74.5281 70.354C81.6552 45.6891 91.7812 22.0505 104.665 0C104.665 0 125.089 24.1437 140.074 70.354Z" fill="#0091CA"/>
<path d="M143.272 266.981C141.523 273.773 139.576 280.682 137.428 287.707C136.41 291.058 135.336 294.436 134.208 297.841C134.208 297.841 117.772 314.735 78.074 297.841C78.074 297.841 76.7857 294.259 74.8532 287.707C73.4085 282.758 71.6094 276.125 69.7322 268.052C69.7322 268.052 84.511 274.277 105.487 274.277C118.446 274.321 131.286 271.842 143.272 266.981V266.981Z" fill="#AFC0E0"/>
<path d="M136.877 289.363C135.888 292.399 134.846 295.46 133.75 298.545C133.75 298.545 117.794 313.854 79.2536 298.545C79.2536 298.545 78.0028 295.299 76.1267 289.363C76.1222 289.363 115.404 299.772 136.877 289.363Z" fill="#E3E8F4"/>
<path opacity="0.2" d="M101.33 109.591L101.284 109.628L85.7188 132.161C85.7188 132.351 85.7188 132.54 85.7188 132.734C85.7159 136.617 86.554 140.442 88.1611 143.882L106.502 108.711L101.33 109.591Z" fill="white"/>
<path opacity="0.2" d="M106.502 129.595L93.129 150.277C91.5219 148.91 90.1044 147.321 88.9163 145.555L104.847 127.895L106.502 129.595Z" fill="white"/>
<path opacity="0.2" d="M88.5261 297.887C88.5261 297.887 84.5754 286.911 80.2306 268.263C70.6655 227.248 59.1938 149.095 83.6359 68.82C90.2061 47.0994 99.2545 26.1826 110.608 6.47022C107.505 2.18533 105.566 0 105.566 0C92.3983 21.5702 82.05 44.6934 74.7674 68.82C50.3253 149.095 61.797 227.248 71.3621 268.263C75.707 286.911 79.6577 297.887 79.6577 297.887C95.2818 304.52 107.285 305.911 116.094 305.17C108.568 304.606 99.4295 302.515 88.5261 297.887Z" fill="white"/>
</svg>
